# xmcd CD database file
#
# Track frame offsets:
#	150
#	24408
#	42645
#	66795
#
# Disc length: 1132 seconds
#
# Revision: 4
# Processed by: cddbd v1.5PL3 Copyright (c) Steve Scherf et al.
# Submitted via: CDex 1.50Beta6
#
DISCID=30046a04
DTITLE=中島美嘉 - WILL
DYEAR=2002
DGENRE=JPop
TTITLE0=WILL
TTITLE1=Just trust in our love
TTITLE2=WILL(Instrumental)
TTITLE3=Just trust in our love(Instrumental)
EXTD=YEAR: 2002
EXTT0=
EXTT1=
EXTT2=
EXTT3=
PLAYORDER=
